<?xml version="1.0" encoding="UTF-8" standalone="no"?>
<svg
   version="1.0"
   width="533px"
   height="482px"
   viewBox="0 0 533 482"
   preserveAspectRatio="xMidYMid meet"
   id="svg58"
   sodipodi:docname="logo_.svg"
   inkscape:version="1.4 (86a8ad7, 2024-10-11)"
   xmlns:inkscape="http://www.inkscape.org/namespaces/inkscape"
   xmlns:sodipodi="http://sodipodi.sourceforge.net/DTD/sodipodi-0.dtd"
   xmlns="http://www.w3.org/2000/svg"
   xmlns:svg="http://www.w3.org/2000/svg">
  <defs
     id="defs58" />
  <sodipodi:namedview
     id="namedview58"
     pagecolor="#ffffff"
     bordercolor="#000000"
     borderopacity="0.25"
     inkscape:showpageshadow="2"
     inkscape:pageopacity="0.0"
     inkscape:pagecheckerboard="0"
     inkscape:deskcolor="#d1d1d1"
     inkscape:zoom="1.6908714"
     inkscape:cx="266.43067"
     inkscape:cy="241"
     inkscape:window-width="1920"
     inkscape:window-height="1017"
     inkscape:window-x="1912"
     inkscape:window-y="114"
     inkscape:window-maximized="1"
     inkscape:current-layer="svg58" />
  <g
     fill="#f47c0b"
     id="g54"
     style="fill:#ff8615;fill-opacity:1">
    <path
       d="M164.65 461.70 c-2.15 -1.05 -2.10 -1.70 0.10 -1.70 1.55 0 1.75 0.15 1.75 1.25 0 0.70 -0.05 1.25 -0.10 1.25 -0.10 0 -0.90 -0.40 -1.75 -0.80z"
       id="path1"
       style="fill:#ff8615;fill-opacity:1" />
    <path
       d="M170 459.80 c0 -1.65 0.10 -1.80 1.55 -1.80 l1.50 0 -1.05 1.50 c-1.55 2.20 -2 2.25 -2 0.30z"
       id="path2"
       style="fill:#ff8615;fill-opacity:1" />
    <path
       d="M159.90 459.10 c-1.85 -1.10 -1.75 -1.60 0.35 -1.60 1.55 0 1.75 0.15 1.75 1.25 0 1.45 -0.30 1.50 -2.10 0.35z"
       id="path3"
       style="fill:#ff8615;fill-opacity:1" />
    <path
       d="M177.50 450.30 c0 -1.65 0.10 -1.80 1.55 -1.80 l1.50 0 -1.05 1.50 c-1.55 2.20 -2 2.25 -2 0.30z"
       id="path4"
       style="fill:#ff8615;fill-opacity:1" />
    <path
       d="M186.50 439.30 c0 -1.65 0.10 -1.80 1.55 -1.80 l1.50 0 -1.05 1.50 c-1.55 2.20 -2 2.25 -2 0.30z"
       id="path5"
       style="fill:#ff8615;fill-opacity:1" />
    <path
       d="M125.65 420.90 c0.95 -2.30 1.85 -2.40 1.85 -0.20 0 1.60 -0.15 1.80 -1.25 1.80 -1.20 0 -1.25 -0.05 -0.60 -1.60z"
       id="path6"
       style="fill:#ff8615;fill-opacity:1" />
    <path
       d="M76 383.25 c0 -1.10 0.20 -1.25 1.80 -1.25 2.20 0 2.10 0.90 -0.20 1.85 -1.55 0.65 -1.60 0.60 -1.60 -0.60z"
       id="path7"
       style="fill:#ff8615;fill-opacity:1" />
    <path
       d="M69.85 382.55 c-1.10 -1.90 -1.10 -2.05 0.40 -2.05 1.10 0 1.25 0.20 1.25 1.75 0 2.15 -0.50 2.20 -1.65 0.30z"
       id="path8"
       style="fill:#ff8615;fill-opacity:1" />
    <path
       d="M80.50 381.25 c0 -1.10 0.20 -1.25 1.80 -1.25 2.20 0 2.10 0.90 -0.20 1.85 -1.55 0.65 -1.60 0.60 -1.60 -0.60z"
       id="path9"
       style="fill:#ff8615;fill-opacity:1" />
    <path
       d="M66.85 377.55 c-1.10 -1.90 -1.10 -2.05 0.40 -2.05 1.10 0 1.25 0.20 1.25 1.75 0 2.15 -0.50 2.20 -1.65 0.30z"
       id="path10"
       style="fill:#ff8615;fill-opacity:1" />
    <path
       d="M89.50 377.25 c0 -1 0.25 -1.25 1.25 -1.25 0.70 0 1.25 -0.20 1.25 -0.50 0 -0.25 0.80 -0.50 1.75 -0.50 1.20 0 1.75 -0.25 1.75 -0.75 0 -0.50 0.55 -0.75 1.75 -0.75 1.20 0 1.75 -0.25 1.75 -0.75 0 -0.50 0.50 -0.75 1.50 -0.75 0.85 0 1.50 -0.20 1.50 -0.50 0 -0.25 0.80 -0.50 1.75 -0.50 1.35 0 1.75 0.20 1.75 0.90 0 0.55 -0.45 0.90 -1.40 0.95 -0.75 0.05 -3.30 0.90 -5.60 1.90 -2.35 1 -5.30 2.25 -6.60 2.80 l-2.40 0.95 0 -1.25z"
       id="path11"
       style="fill:#ff8615;fill-opacity:1" />
    <path
       d="M61.85 368.55 c-1.10 -1.90 -1.10 -2.05 0.40 -2.05 1.10 0 1.25 0.20 1.25 1.75 0 2.15 -0.50 2.20 -1.65 0.30z"
       id="path12"
       style="fill:#ff8615;fill-opacity:1" />
    <path
       d="M156.50 357.45 l0 -1.50 1.50 1.05 c2.20 1.55 2.25 2 0.30 2 -1.65 0 -1.80 -0.10 -1.80 -1.55z"
       id="path13"
       style="fill:#ff8615;fill-opacity:1" />
    <path
       d="M52.35 351.55 c-1.10 -1.90 -1.10 -2.05 0.40 -2.05 1.10 0 1.25 0.20 1.25 1.75 0 2.15 -0.50 2.20 -1.65 0.30z"
       id="path14"
       style="fill:#ff8615;fill-opacity:1" />
    <path
       d="M148.85 351.15 c-0.20 -0.15 -0.35 -1.10 -0.35 -2.05 0 -1.50 0.10 -1.65 0.75 -1.10 0.45 0.35 1.25 1.30 1.80 2.10 l1 1.40 -1.45 0 c-0.80 0 -1.60 -0.15 -1.75 -0.35z"
       id="path15"
       style="fill:#ff8615;fill-opacity:1" />
    <path
       d="M145 345.20 c0 -1.95 0.45 -1.90 2 0.30 l1.05 1.50 -1.50 0 c-1.45 0 -1.55 -0.15 -1.55 -1.80z"
       id="path16"
       style="fill:#ff8615;fill-opacity:1" />
    <path
       d="M54.25 329.50 c0.15 -0.25 0.95 -0.95 1.75 -1.50 l1.50 -1.05 0 1.50 c0 1.45 -0.15 1.55 -1.80 1.55 -1 0 -1.65 -0.20 -1.45 -0.50z"
       id="path17"
       style="fill:#ff8615;fill-opacity:1" />
    <path
       d="M130.50 325.75 c0 -2.15 0.50 -2.20 1.65 -0.30 1.10 1.90 1.10 2.05 -0.40 2.05 -1.10 0 -1.25 -0.20 -1.25 -1.75z"
       id="path18"
       style="fill:#ff8615;fill-opacity:1" />
    <path
       d="M58.25 326.50 c0.15 -0.25 0.95 -0.95 1.75 -1.50 l1.50 -1.05 0 1.50 c0 1.45 -0.15 1.55 -1.80 1.55 -1 0 -1.65 -0.20 -1.45 -0.50z"
       id="path19"
       style="fill:#ff8615;fill-opacity:1" />
    <path
       d="M68.25 318.50 c0.15 -0.25 0.95 -0.95 1.75 -1.50 l1.50 -1.05 0 1.50 c0 1.45 -0.15 1.55 -1.80 1.55 -1 0 -1.65 -0.20 -1.45 -0.50z"
       id="path20"
       style="fill:#ff8615;fill-opacity:1" />
    <path
       d="M72 315.80 c0 -1.05 0.75 -1.40 2.25 -1 1.95 0.50 1.60 1.70 -0.50 1.70 -1.20 0 -1.75 -0.25 -1.75 -0.70z"
       id="path21"
       style="fill:#ff8615;fill-opacity:1" />
    <path
       d="M124.50 315.70 c-12.70 -0.50 -28.05 -2.45 -40.75 -5.15 -2.45 -0.55 -6.50 -1.35 -9 -1.80 -7.05 -1.30 -13.05 -2.95 -26.25 -7.30 -13.50 -4.40 -27.65 -10.20 -37 -15.10 -2.60 -1.40 -5.60 -2.95 -6.65 -3.50 -1.05 -0.55 -2.10 -1.40 -2.40 -1.90 -0.45 -0.85 -0.30 -0.95 1.25 -0.95 0.95 0 6.05 1.45 11.40 3.20 22.85 7.50 32.60 9.75 52.05 11.80 18 1.90 31 1.80 50.35 -0.30 22.10 -2.40 43.35 -7.90 66 -16.95 8.40 -3.40 26.80 -12.30 33.25 -16.10 4.45 -2.65 12.15 -7.70 16.05 -10.55 1.40 -1 4.75 -3.45 7.50 -5.45 5.55 -4.05 7.80 -5.80 16.40 -12.65 10.90 -8.70 10.70 -8.55 22.55 -16.25 6.25 -4 20.80 -11.45 30.25 -15.45 8.55 -3.60 25.55 -8.95 36.50 -11.50 1.80 -0.40 4.85 -1.10 6.75 -1.55 1.95 -0.45 4.75 -1.05 6.25 -1.25 1.50 -0.25 4.90 -0.80 7.60 -1.20 2.65 -0.40 6.10 -0.90 7.75 -1 1.60 -0.15 5.70 -0.55 9.15 -0.85 13.55 -1.20 53.80 -0.20 61.25 1.55 1.10 0.25 7.05 1.25 13.25 2.20 19.85 3.10 48.75 10.85 58.35 15.70 1.60 0.80 4.35 2.10 6.15 2.80 6.05 2.50 7.25 3.20 8.90 5.05 2.75 3 1.15 5.25 -3.70 5.25 -1.35 0 -1.70 -0.20 -1.70 -1 0 -0.80 0.35 -1 1.65 -1 2.20 0 3.30 -0.75 2.05 -1.35 -1.30 -0.65 -12.85 -4.25 -18.80 -5.90 -6.20 -1.65 -18.10 -3.55 -27.40 -4.35 -10.05 -0.90 -37.65 -0.70 -44.25 0.30 -2.75 0.40 -7.45 1.10 -10.50 1.50 -21.80 3.15 -39.55 7.95 -61.75 16.70 -4.50 1.80 -20.70 9.25 -22.30 10.35 -0.65 0.40 -4.50 2.55 -8.55 4.80 -8.60 4.70 -19.95 11.95 -26.40 16.75 -2.45 1.85 -5.75 4.15 -7.25 5.15 -1.50 1 -4.55 3.15 -6.75 4.80 -2.25 1.65 -5.30 3.90 -6.90 5 -1.55 1.10 -4.90 3.55 -7.45 5.40 -4.85 3.60 -9.80 6.95 -16.70 11.25 -4.75 2.95 -24.30 12.90 -26.45 13.40 -0.80 0.20 -3.05 1.05 -5 1.85 -17.25 7.35 -40.40 12.70 -64.25 14.80 -5.90 0.55 -36.90 1.05 -44.50 0.75z"
       id="path22"
       style="fill:#ff8615;fill-opacity:1" />
    <path
       d="M88.50 289 c0 -0.85 0.35 -1 2 -1 2.25 0 2.85 1.15 0.90 1.70 -2.10 0.55 -2.90 0.35 -2.90 -0.70z"
       id="path23"
       style="fill:#ff8615;fill-opacity:1" />
    <path
       d="M66.40 289.15 c-1.65 -0.40 -1 -1.65 0.85 -1.65 1.40 0 1.75 0.20 1.75 1 0 1 -0.70 1.15 -2.60 0.65z"
       id="path24"
       style="fill:#ff8615;fill-opacity:1" />
    <path
       d="M101 288.50 c0 -0.80 0.35 -1 1.75 -1 2 0 2.45 1.20 0.65 1.70 -1.90 0.50 -2.40 0.35 -2.40 -0.70z"
       id="path25"
       style="fill:#ff8615;fill-opacity:1" />
    <path
       d="M109.50 288 c0 -0.85 0.35 -1 2.50 -1 2.15 0 2.50 0.15 2.50 1 0 0.85 -0.35 1 -2.50 1 -2.15 0 -2.50 -0.15 -2.50 -1z"
       id="path26"
       style="fill:#ff8615;fill-opacity:1" />
    <path
       d="M0 278.50 c0 -0.80 0.35 -1 1.50 -1 1.40 0 1.45 0.10 0.90 1 -0.35 0.55 -1.05 1 -1.50 1 -0.55 0 -0.90 -0.40 -0.90 -1z"
       id="path27"
       style="fill:#ff8615;fill-opacity:1" />
    <path
       d="M526.50 219 c0 -0.75 0.35 -1 1.25 -1 0.70 0 1.25 -0.20 1.25 -0.50 0 -0.25 0.80 -0.50 1.80 -0.50 1.65 0 1.75 0.10 1.15 0.85 -0.75 0.90 -3.50 2.15 -4.70 2.15 -0.40 0 -0.75 -0.45 -0.75 -1z"
       id="path28"
       style="fill:#ff8615;fill-opacity:1" />
    <path
       d="M507 211 c0 -1.05 0.50 -1.20 2.40 -0.70 1.80 0.50 1.35 1.70 -0.65 1.70 -1.40 0 -1.75 -0.20 -1.75 -1z"
       id="path29"
       style="fill:#ff8615;fill-opacity:1" />
    <path
       d="M115 190.80 c0 -1.60 0.15 -1.80 1.25 -1.80 1.20 0 1.25 0.05 0.60 1.60 -0.95 2.30 -1.85 2.40 -1.85 0.20z"
       id="path30"
       style="fill:#ff8615;fill-opacity:1" />
    <path
       d="M457.65 181.65 c-0.75 -0.30 -0.90 -2.15 -0.15 -2.15 0.45 0 1.50 1.55 1.50 2.20 0 0.35 -0.50 0.35 -1.35 -0.05z"
       id="path31"
       style="fill:#ff8615;fill-opacity:1" />
    <path
       d="M120.50 177.05 c0 -2.25 0.50 -3.05 1.80 -3.05 1.45 0 1.45 0.05 0.20 2.50 -1.20 2.35 -2 2.55 -2 0.55z"
       id="path32"
       style="fill:#ff8615;fill-opacity:1" />
    <path
       d="M123 171.75 c0 -1.55 0.15 -1.75 1.25 -1.75 1.50 0 1.50 0.15 0.40 2.05 -1.15 1.90 -1.65 1.85 -1.65 -0.30z"
       id="path33"
       style="fill:#ff8615;fill-opacity:1" />
    <path
       d="M131 157.25 c0 -0.95 0.25 -1.75 0.50 -1.75 0.30 0 0.50 -0.35 0.50 -0.75 0 -0.45 0.45 -0.75 1.25 -0.75 0.70 0 1.25 0.15 1.25 0.30 0 0.60 -2.75 4.70 -3.10 4.70 -0.25 0 -0.40 -0.80 -0.40 -1.75z"
       id="path34"
       style="fill:#ff8615;fill-opacity:1" />
    <path
       d="M135 151.30 c0 -1.25 0.20 -1.80 0.75 -1.80 0.40 0 0.75 -0.45 0.75 -1 0 -0.80 0.35 -1 1.55 -1 l1.50 0 -1.60 2.25 c-2.50 3.45 -2.95 3.70 -2.95 1.55z"
       id="path35"
       style="fill:#ff8615;fill-opacity:1" />
    <path
       d="M144 139.85 c0 -2 0.60 -2.55 2.50 -2.25 1 0.15 1 0.25 -0.70 2.15 l-1.75 2 -0.05 -1.90z"
       id="path36"
       style="fill:#ff8615;fill-opacity:1" />
    <path
       d="M149.50 133.80 c0 -1.65 0.10 -1.80 1.55 -1.80 l1.50 0 -1.05 1.50 c-1.55 2.20 -2 2.25 -2 0.30z"
       id="path37"
       style="fill:#ff8615;fill-opacity:1" />
    <path
       d="M52 131.20 c0 -0.60 1.70 -3.20 2.10 -3.20 0.20 0 0.40 0.80 0.40 1.75 0 1.55 -0.15 1.75 -1.25 1.75 -0.70 0 -1.25 -0.15 -1.25 -0.30z"
       id="path38"
       style="fill:#ff8615;fill-opacity:1" />
    <path
       d="M158 125.05 c0 -1.45 0.15 -1.55 1.80 -1.55 1.95 0 1.90 0.45 -0.30 2 l-1.50 1.05 0 -1.50z"
       id="path39"
       style="fill:#ff8615;fill-opacity:1" />
    <path
       d="M169.50 115.55 c0 -1.20 0.20 -1.55 1 -1.55 0.55 0 1 -0.35 1 -0.75 0 -0.55 0.55 -0.75 1.80 -0.75 2.15 0 1.90 0.45 -1.55 2.95 l-2.25 1.60 0 -1.50z"
       id="path40"
       style="fill:#ff8615;fill-opacity:1" />
    <path
       d="M62.50 113.20 c0 -0.60 3.25 -5.70 3.60 -5.70 0.25 0 0.40 0.80 0.40 1.75 0 1.20 -0.25 1.75 -0.75 1.75 -0.45 0 -0.75 0.45 -0.75 1.25 0 1 -0.25 1.25 -1.25 1.25 -0.70 0 -1.25 -0.15 -1.25 -0.30z"
       id="path41"
       style="fill:#ff8615;fill-opacity:1" />
    <path
       d="M182 106.75 c0 -1.10 0.20 -1.25 1.75 -1.25 2.15 0 2.20 0.50 0.30 1.65 -1.90 1.10 -2.05 1.10 -2.05 -0.40z"
       id="path42"
       style="fill:#ff8615;fill-opacity:1" />
    <path
       d="M90.50 106.25 c0 -1.20 0.05 -1.25 1.60 -0.60 2.30 0.95 2.40 1.85 0.20 1.85 -1.60 0 -1.80 -0.15 -1.80 -1.25z"
       id="path43"
       style="fill:#ff8615;fill-opacity:1" />
    <path
       d="M109.90 105.10 c0.60 -0.80 1.40 -1.75 1.85 -2.10 0.75 -0.60 0.80 -0.50 0.65 1.30 -0.15 1.80 -0.25 1.95 -1.85 2.10 l-1.65 0.15 1 -1.45z"
       id="path44"
       style="fill:#ff8615;fill-opacity:1" />
    <path
       d="M86 104.25 c0 -1.20 0.05 -1.25 1.60 -0.60 2.30 0.95 2.40 1.85 0.20 1.85 -1.60 0 -1.80 -0.15 -1.80 -1.25z"
       id="path45"
       style="fill:#ff8615;fill-opacity:1" />
    <path
       d="M69 102.20 c0 -0.60 1.70 -3.20 2.10 -3.20 0.20 0 0.40 0.80 0.40 1.75 0 1.55 -0.15 1.75 -1.25 1.75 -0.70 0 -1.25 -0.15 -1.25 -0.30z"
       id="path46"
       style="fill:#ff8615;fill-opacity:1" />
    <path
       d="M72 98.50 c0 -1.05 0.50 -1.20 2.40 -0.70 1.80 0.50 1.35 1.70 -0.65 1.70 -1.40 0 -1.75 -0.20 -1.75 -1z"
       id="path47"
       style="fill:#ff8615;fill-opacity:1" />
    <path
       d="M129.25 86 c0.15 -0.25 0.95 -0.95 1.75 -1.50 l1.50 -1.05 0 1.50 c0 1.45 -0.15 1.55 -1.80 1.55 -1 0 -1.65 -0.20 -1.45 -0.50z"
       id="path48"
       style="fill:#ff8615;fill-opacity:1" />
    <path
       d="M133.15 80.25 c-0.55 -1.65 -0.50 -1.75 0.65 -1.75 1.05 0 1.20 0.25 1.20 1.75 0 1.10 -0.25 1.75 -0.65 1.75 -0.40 0 -0.90 -0.80 -1.20 -1.75z"
       id="path49"
       style="fill:#ff8615;fill-opacity:1" />
    <path
       d="M123.80 57.05 c-0.15 -0.20 -0.50 -1 -0.75 -1.75 -0.50 -1.20 -0.40 -1.30 0.70 -1.30 1.10 0 1.25 0.20 1.25 1.75 0 1.65 -0.60 2.30 -1.20 1.30z"
       id="path50"
       style="fill:#ff8615;fill-opacity:1" />
    <path
       d="M120.50 49.05 c-0.80 -1.55 -0.60 -2.55 0.50 -2.55 0.80 0 1 0.35 1 1.75 0 1.95 -0.70 2.30 -1.50 0.80z"
       id="path51"
       style="fill:#ff8615;fill-opacity:1" />
    <path
       d="M139.50 35.10 c0 -0.40 2.60 -2.10 3.20 -2.10 0.15 0 0.30 0.55 0.30 1.25 0 1.10 -0.20 1.25 -1.75 1.25 -0.95 0 -1.75 -0.20 -1.75 -0.40z"
       id="path52"
       style="fill:#ff8615;fill-opacity:1" />
    <path
       d="M165.50 20.30 c0 -0.75 1.75 -1.35 2.80 -0.95 1.45 0.55 0.75 1.65 -1.05 1.65 -1.15 0 -1.75 -0.25 -1.75 -0.70z"
       id="path53"
       style="fill:#ff8615;fill-opacity:1" />
    <path
       d="M358 20.30 c0 -0.80 1.25 -1.20 2.65 -0.90 1.60 0.40 0.95 1.60 -0.90 1.60 -1.20 0 -1.75 -0.25 -1.75 -0.70z"
       id="path54"
       style="fill:#ff8615;fill-opacity:1" />
  </g>
  <g
     fill="#667a8a"
     id="g56">
    <path
       d="M235.60 480.30 c-0.95 -1.40 -1.35 -3.35 -2.40 -11.85 -1.55 -12.75 -3.05 -21.90 -3.75 -22.75 -0.30 -0.35 -1.80 -0.90 -3.35 -1.20 -10.95 -2.25 -17.85 -3.95 -24.50 -6.05 -4.20 -1.35 -8.30 -2.45 -9.10 -2.45 -1.60 0 -3.45 1.95 -11.75 12.45 -8.35 10.60 -11.75 14.55 -12.55 14.55 -1.45 0 -6 -2.55 -29.70 -16.65 -13.40 -7.95 -16.95 -10.25 -17.70 -11.45 -0.50 -0.85 0.85 -4.65 5.45 -15.40 2.65 -6.15 6.85 -17.95 6.65 -18.75 -0.10 -0.35 -3.85 -4.10 -8.40 -8.35 -4.55 -4.25 -10.85 -10.50 -14 -13.85 -5.05 -5.35 -5.90 -6.05 -6.95 -5.80 -1.20 0.30 -4.65 1.75 -22.50 9.45 -4.25 1.85 -8.05 3.30 -8.50 3.20 -0.95 -0.20 -3.30 -3.70 -7.90 -11.90 -17.90 -31.80 -18.85 -33.55 -18.85 -35.70 -0.05 -1.95 0.05 -2.05 5.20 -5.95 6.85 -5.15 17.70 -13.65 20 -15.70 l1.85 -1.60 5.20 1.25 c10.90 2.65 20.25 4.30 32.20 5.70 4.40 0.50 16.95 1.50 19.05 1.50 0.85 0 2.05 1.45 5 5.85 12.60 18.95 28.95 34.85 48.20 46.90 16.70 10.45 37.70 18.10 59.25 21.55 6.70 1.05 28.70 1.50 37.15 0.75 15.15 -1.40 28.95 -4.60 41.85 -9.80 18.50 -7.45 32.50 -16.10 47.25 -29.25 5.55 -4.95 5.75 -5.05 5.90 -3.75 0.15 1 -0.25 1.80 -1.45 3.05 -0.90 0.95 -1.85 1.70 -2.10 1.70 -0.20 0 -1 0.70 -1.70 1.50 -0.70 0.90 -1.70 1.50 -2.40 1.50 -0.85 0 -1.25 0.30 -1.35 1.10 -0.35 2.65 -19.55 15.45 -32.15 21.45 -21.35 10.20 -39.20 14.25 -64.85 14.80 -17.20 0.40 -27.60 -0.65 -42.65 -4.20 -12.95 -3.05 -33.40 -11.50 -43.50 -18.05 -10.05 -6.45 -20.75 -14.55 -20.75 -15.60 0 -0.30 -0.30 -0.50 -0.70 -0.50 -0.40 0 -1.40 -0.80 -2.25 -1.75 -0.85 -0.95 -1.70 -1.75 -1.90 -1.75 -0.20 0 -1.65 -1.30 -3.25 -2.85 -1.85 -1.85 -2.90 -3.30 -2.90 -4 0 -0.80 -0.30 -1.15 -0.95 -1.15 -1.60 0 -10.45 -10.70 -16.55 -19.90 l-3.55 -5.45 -8.35 -0.60 c-13.45 -1 -29.25 -3.40 -40.45 -6.05 -5.65 -1.35 -6.40 -1.45 -7.15 -0.75 -0.45 0.40 -1.10 0.75 -1.40 0.75 -0.35 0 -0.60 0.20 -0.60 0.45 0 0.55 -8.75 7.55 -9.45 7.55 -0.30 0 -0.55 0.20 -0.55 0.45 0 0.25 -1.65 1.65 -3.65 3.10 -1.95 1.50 -5 3.80 -6.75 5.10 l-3.15 2.45 1.95 3.60 c4.85 8.85 13.25 24 15.85 28.55 6.40 11.15 7.35 12.75 7.75 13 0.25 0.15 5.05 -1.75 10.65 -4.15 14.50 -6.40 19 -8.10 20.90 -8.10 1.55 0.05 2.55 0.95 11.20 9.95 5.25 5.50 9.75 10 10 10 0.30 0.05 2.45 1.95 4.90 4.30 3.95 3.80 4.35 4.35 4.35 6.05 0 2.25 -3.30 11.75 -7.90 22.70 -4.70 11.20 -4.50 10.25 -2.25 11.80 1.95 1.30 29.55 17.75 38.10 22.70 l4.70 2.70 1.95 -2.20 c1.05 -1.25 3.50 -4.25 5.40 -6.75 1.90 -2.45 5.85 -7.40 8.85 -11 l5.40 -6.50 3 -0.15 c2.45 -0.10 4.40 0.30 10.75 2.30 7.10 2.30 17.05 4.80 24.05 6.10 1.55 0.30 3.20 0.80 3.65 1.15 1.25 0.95 2.15 5.55 4.55 24.25 0.75 5.85 1.45 9.55 1.95 10.35 l0.80 1.25 25.65 0 c14.05 0 25.85 -0.20 26.20 -0.40 1 -0.65 1.55 -2.75 2.10 -8.40 0.50 -4.90 1.15 -9.65 3.10 -22.35 0.30 -2.15 0.85 -4.20 1.20 -4.55 0.35 -0.35 2.65 -1 5.05 -1.50 8.45 -1.65 18.95 -4.35 25.60 -6.55 7.80 -2.65 9.40 -2.75 11.60 -0.95 2.20 1.85 9.90 11.40 18.80 23.35 1 1.30 2 2.35 2.25 2.35 1.05 0 12.45 -6.45 31.20 -17.75 3.30 -1.95 7.50 -4.40 9.35 -5.45 4.75 -2.65 4.75 -2.60 3 -6.65 -1.95 -4.40 -6.75 -16.60 -8.90 -22.55 -2.95 -8.15 -3.95 -6.45 12.65 -22.85 14.25 -14.15 14.35 -14.25 16.50 -14.25 1.55 0 5.55 1.45 15.75 5.80 7.50 3.20 14 5.90 14.45 6.05 0.55 0.15 1.30 -0.60 2.45 -2.40 1.90 -3.15 9.45 -16.55 15.25 -27.20 2.25 -4.10 5.15 -9.35 6.40 -11.65 l2.30 -4.15 -3.85 -2.85 c-2.10 -1.55 -5.55 -4.20 -7.65 -5.85 -2.10 -1.65 -5.45 -4.25 -7.45 -5.75 -6.20 -4.65 -8 -6.45 -8 -8.05 0 -0.80 1.10 -4.85 2.50 -9.05 2.55 -7.95 4.65 -16.25 6.45 -25.60 0.60 -3 1.30 -5.75 1.60 -6.10 0.30 -0.35 1.70 -0.90 3.10 -1.20 2.90 -0.60 19.20 -3.25 26 -4.20 2.80 -0.40 4.70 -0.95 5.25 -1.50 0.80 -0.75 0.85 -3 1 -25.80 l0.15 -25 4.45 0 c2.40 0 8.60 0.35 13.70 0.75 7.25 0.60 9.55 0.60 10.65 0.15 l1.40 -0.60 -1.50 -0.15 c-0.80 -0.10 -4.10 -0.85 -7.25 -1.65 -17.60 -4.40 -34.90 -5.75 -59.75 -4.55 -15.15 0.70 -39.15 3.35 -40.35 4.50 -0.15 0.15 0 2.90 0.35 6.05 0.40 3.15 0.85 10.15 1.05 15.50 1.20 36.35 -8.45 69.45 -28.55 97.70 -1.90 2.75 -4.25 5.75 -5.10 6.70 -0.90 0.95 -1.65 1.90 -1.65 2.05 -0.05 0.15 -1.70 2.20 -3.70 4.55 -3 3.55 -3.90 4.30 -5.25 4.40 l-1.70 0.15 0.95 -1.20 c0.55 -0.70 3.10 -3.80 5.75 -6.90 9.40 -11.20 14.55 -18.90 20.90 -31.45 14 -27.60 19.15 -58.30 15.25 -91.35 -0.50 -4.20 -0.75 -7.75 -0.65 -7.90 1.25 -1.20 26.50 -4.15 41.60 -4.80 26.95 -1.20 48.05 0.55 64.50 5.30 3.10 0.90 4.30 1.05 5.45 0.65 0.75 -0.25 1.40 -0.70 1.40 -0.95 0 -0.25 0.45 -0.45 1 -0.45 0.85 0 1 0.35 1 2.15 0 1.85 -0.20 2.25 -1.70 3.20 -2.55 1.65 -4.25 1.75 -14.45 0.90 -5.20 -0.40 -10.85 -0.75 -12.60 -0.75 l-3.15 0 -0.20 24.40 c-0.15 22.20 -0.25 24.50 -1 25.70 -0.55 0.85 -1.50 1.45 -2.50 1.60 -0.90 0.15 -6.80 1.10 -13.15 2.05 -12.45 1.95 -18.30 3.10 -18.85 3.65 -0.20 0.20 -0.85 2.85 -1.40 5.85 -1.65 8.60 -4.30 18.90 -6.70 26.25 l-2.25 6.75 1.10 1.15 c1 1.05 9.60 7.80 21.30 16.60 5.35 4.05 5.50 4.60 2.40 10.25 -1.20 2.20 -3.70 6.80 -5.60 10.25 -1.85 3.45 -4.70 8.50 -6.25 11.25 -1.60 2.75 -4.60 8.15 -6.75 12 -4.20 7.60 -5.40 9.25 -6.90 9.25 -0.55 0 -7.65 -2.85 -15.75 -6.30 -9.75 -4.15 -15.05 -6.20 -15.75 -6 -0.60 0.15 -2.65 2 -4.55 4.15 -1.90 2.15 -8 8.25 -13.50 13.55 -5.55 5.30 -10.10 9.90 -10.20 10.25 -0.20 1.05 5.10 15.40 9.65 26.05 2.40 5.65 2.80 8.20 1.40 9.40 -0.50 0.45 -3.05 2 -5.65 3.50 -2.60 1.50 -6.45 3.75 -8.50 5 -12.45 7.50 -27.25 16.05 -29.25 16.95 -1.30 0.60 -2.85 0.90 -3.45 0.75 -0.65 -0.15 -2.95 -2.65 -5.60 -6.10 -11.50 -15 -16.75 -21.20 -18.05 -21.20 -0.30 0 -3.50 1 -7 2.20 -5.70 1.95 -18.95 5.30 -26.75 6.80 -1.55 0.30 -3.05 0.80 -3.30 1.15 -0.75 0.90 -3.25 17.10 -4.35 28.10 -0.20 1.65 -0.55 3.80 -0.80 4.80 -0.90 3.55 0.15 3.45 -29.55 3.45 l-26.65 0 -1.15 -1.70z"
       id="path55" />
    <path
       d="M71.85 289.45 c-20.40 -0.95 -41.50 -4.30 -55.60 -8.80 -8 -2.55 -13.10 -3.25 -14.20 -1.95 -1.10 1.30 -2.05 1 -2.05 -0.65 0 -1 0.55 -2.05 1.70 -3.25 1.55 -1.65 1.90 -1.80 4.50 -1.80 3.65 0 11 1.20 18.55 2.95 7.70 1.85 17 3.35 26.75 4.30 4.25 0.45 8.50 0.90 9.35 1.05 2 0.40 2.50 -0.50 1.65 -3.05 -0.95 -2.90 -1.70 -3.10 -21.75 -6.20 -3.55 -0.55 -7.70 -1.15 -9.15 -1.35 -2.05 -0.25 -2.90 -0.65 -3.85 -1.80 l-1.30 -1.50 0.15 -25.65 c0.15 -29.85 -0.30 -27.40 5.55 -27.95 7.35 -0.65 28.70 -4.50 29.50 -5.30 0.25 -0.20 0.95 -2.85 1.60 -5.80 2.80 -13.25 6.05 -25.45 7.95 -30.20 0.70 -1.70 1.15 -3.30 1 -3.65 -0.15 -0.35 -1 -1.15 -1.95 -1.85 -2.90 -2.15 -21.90 -17.55 -23.60 -19.15 -0.90 -0.85 -1.65 -2 -1.65 -2.55 0 -1.80 7.65 -15.55 23.65 -42.70 3.05 -5.15 3.05 -5.15 4.70 -4.85 0.85 0.15 6.30 2.40 12 4.95 13 5.80 18.50 7.90 19.60 7.55 0.50 -0.15 2.50 -2.10 4.45 -4.40 3.50 -4.10 10 -10.55 19.25 -19.15 2.65 -2.50 4.85 -4.90 4.85 -5.35 0 -0.40 -1.45 -4.20 -3.20 -8.40 -7.25 -17.60 -9.75 -23.75 -10.05 -25.05 -0.40 -1.60 -2.10 -0.45 22 -14.70 20.05 -11.90 22.25 -13.15 24.30 -13.70 1.50 -0.45 1.75 -0.35 3.90 1.90 1.25 1.35 4.90 5.75 8.05 9.85 8.50 11 13 16.25 13.90 16.25 0.40 0 4.20 -1.10 8.35 -2.50 8.05 -2.60 14.30 -4.25 22.75 -6 2.90 -0.60 5.45 -1.25 5.65 -1.45 1.10 -1.05 3.75 -17.20 4.80 -29.05 0.50 -5.15 0.55 -5.30 2.25 -6.85 l1.80 -1.65 25.50 0 c27.50 0 27.65 0 29.05 2.60 0.35 0.60 0.90 3.95 1.25 7.40 0.85 8.30 2.55 21.15 3.20 24.35 0.30 1.40 0.85 2.80 1.20 3.10 0.35 0.30 3.35 1.10 6.60 1.75 6.60 1.35 16.50 4.05 22.20 6.10 2.05 0.75 4.80 1.60 6.10 1.95 l2.40 0.65 5.60 -7.10 c3.10 -3.90 7 -8.85 8.65 -11 6.45 -8.45 7.95 -10.05 9.60 -10.20 1.90 -0.20 3.45 0.55 14.05 6.85 28.50 16.80 33.35 19.80 33.50 20.85 0.10 0.60 -0.85 3.55 -2.10 6.50 -4.25 10.35 -4.90 11.95 -6.65 16.45 -0.95 2.50 -2.25 6.05 -2.95 7.95 l-1.20 3.50 11.65 11.50 c6.40 6.35 12.50 12.75 13.60 14.15 1.10 1.45 2.45 2.75 3 2.90 1 0.30 5.65 -1.55 22.95 -8.95 4.90 -2.10 9.05 -3.80 9.25 -3.80 1.15 0 6.50 8.45 14.20 22.50 2.30 4.25 5.45 9.80 6.95 12.25 4 6.50 6.40 11.50 6.40 13.20 0 1.25 -0.50 1.95 -2.85 3.80 -16.15 12.75 -24.05 19.20 -24.25 19.80 -0.10 0.30 0.80 3.35 1.95 6.80 1.75 5.15 2 6.20 1.25 5.90 -1.05 -0.45 -6.30 -1.30 -16.60 -2.70 -6.65 -0.90 -24.40 -2 -32.85 -2.05 l-2.60 0 -3.55 -6.95 c-10.50 -20.70 -25.55 -38.85 -43.70 -52.65 -27.95 -21.30 -60.60 -32.35 -95.65 -32.40 -7.30 0 -7.65 -0.05 -7.65 -1 0 -0.95 0.35 -1 6.90 -1 8.60 0 22.05 1.10 29.85 2.50 28.05 4.85 56.60 18.75 77.65 37.85 3.35 3.05 4.10 4 4.10 5.20 0 1.25 0.20 1.45 1.40 1.45 1 0 2.05 0.65 3.75 2.40 1.30 1.30 2.35 2.65 2.35 3 0 0.35 0.20 0.60 0.45 0.60 0.85 0 9 10.50 13.80 17.80 2.55 3.85 6.30 10.15 8.25 14 l3.60 6.95 4.30 0.30 c2.40 0.20 7.15 0.35 10.60 0.40 7.45 0.05 26.90 2.10 31.80 3.35 1.50 0.40 1.50 0.35 -0.35 -4.55 -0.55 -1.35 -0.95 -3.55 -0.95 -4.85 0 -2.40 0 -2.40 3.90 -5.50 8.50 -6.80 18.95 -15.20 20.95 -16.80 l2.15 -1.65 -1.80 -3.60 c-1 -2 -3.20 -5.95 -4.95 -8.85 -1.70 -2.90 -5.10 -8.85 -7.50 -13.25 -4.85 -8.80 -10.45 -18.15 -11.40 -19.10 -0.45 -0.45 -2.45 0.25 -8.60 2.95 -22.05 9.60 -24 10.15 -26.70 7.25 -0.85 -0.85 -1.55 -1.80 -1.55 -2 0 -0.20 -0.80 -1.05 -1.75 -1.90 -0.95 -0.85 -1.75 -1.80 -1.80 -2.15 -0.05 -0.30 -5 -5.25 -11 -11 -9.95 -9.50 -10.95 -10.65 -10.95 -12.10 0 -1.75 3.50 -11.40 9.25 -25.65 1.80 -4.50 3.15 -8.35 2.90 -8.55 -0.45 -0.40 -20.85 -12.50 -34.35 -20.45 -5.25 -3.05 -9.75 -5.50 -10 -5.40 -0.60 0.20 -4.05 4.30 -8.75 10.40 -1.80 2.30 -5.60 7.20 -8.50 10.85 l-5.20 6.60 -2.40 0 c-1.45 0 -4.55 -0.70 -7.55 -1.75 -8.05 -2.70 -20.15 -6.05 -25.60 -7.05 -5.45 -1 -5.90 -1.35 -6.75 -5.20 -0.65 -3.05 -2.90 -20.25 -3.35 -25.50 -0.35 -4.45 -1.10 -6.65 -2.45 -7.20 -0.45 -0.15 -12 -0.30 -25.70 -0.30 l-24.90 0 -1.10 1.20 c-1 1.05 -1.25 2.20 -1.85 7.90 -0.75 7.35 -2.95 21.95 -3.80 25.25 -0.25 1.15 -0.75 2.30 -1.10 2.55 -0.30 0.25 -3 0.95 -6.05 1.55 -8.50 1.70 -14.80 3.35 -23 6.05 -8.20 2.70 -11.10 3.05 -12.40 1.60 -0.50 -0.50 -0.85 -1.15 -0.85 -1.40 0 -0.25 -0.40 -0.70 -0.95 -1.05 -0.50 -0.30 -4.50 -5.15 -8.85 -10.70 -4.35 -5.60 -8.75 -11.05 -9.75 -12.15 l-1.80 -1.95 -5.20 3 c-7.05 4.10 -35.25 20.80 -38.90 23.10 -0.55 0.35 -0.35 1.20 1.10 4.60 7.30 17.10 11.35 27.60 11.35 29.20 0 1.75 -1.55 4.75 -2.50 4.75 -0.25 0 -1.80 1.45 -3.55 3.25 -1.70 1.80 -3.25 3.25 -3.45 3.25 -0.20 0 -3.25 2.95 -6.75 6.50 -3.55 3.60 -6.75 6.50 -7.10 6.50 -0.35 0 -0.65 0.40 -0.65 0.90 0 0.50 -1.10 2.05 -2.50 3.50 -2.20 2.30 -2.70 2.60 -4.50 2.60 -2.30 0 -7.65 -2.10 -21.70 -8.45 -4.95 -2.25 -9.20 -4.05 -9.50 -4.05 -0.80 0.05 -25.80 43.45 -25.80 44.85 0 0.45 5.50 5.65 5.95 5.65 0.15 0 1.30 0.90 2.50 2 1.20 1.10 2.25 2 2.35 2 0.50 0 6.70 5.15 6.70 5.55 0 0.25 0.25 0.45 0.60 0.45 0.50 0 5.40 3.95 7.55 6.10 1.30 1.30 1.05 3.90 -0.90 9.55 -1.85 5.45 -5.45 19.60 -7.30 28.60 -0.60 3.05 -1.15 5.55 -1.20 5.60 -0.35 0.55 -21.05 4.25 -28.90 5.20 -4 0.45 -5 0.75 -5.60 1.65 -0.65 0.85 -0.75 4.75 -0.75 25.05 l0 24.10 1.15 1.05 c0.80 0.75 2.25 1.25 4.85 1.60 11.80 1.65 23.60 3.60 25.85 4.30 3.30 0.90 4.20 2.20 4.50 6.40 0.25 2.95 0.20 3.20 -0.80 3.55 -0.60 0.15 -4.05 0 -7.70 -0.45 -3.60 -0.40 -8.30 -0.90 -10.35 -1.05 -5.30 -0.45 -16.75 -2.45 -23.25 -4 -9.55 -2.30 -17.50 -3.35 -18.45 -2.35 -0.20 0.20 1.40 0.60 3.55 0.90 2.15 0.30 6.95 1.45 10.65 2.60 18.15 5.55 36.75 8.10 62.25 8.45 13.95 0.20 30.40 -0.35 31.05 -1 0.10 -0.10 -0.60 -3.55 -1.55 -7.65 -2.90 -12.60 -3.50 -18.90 -3.50 -36.20 0 -9.90 0.25 -17 0.65 -20.25 2 -14.95 5.25 -27.75 10.40 -40.85 2.85 -7.30 10 -20.95 14.40 -27.60 4.30 -6.45 11.15 -15.30 11.90 -15.30 0.20 0 0.40 -0.30 0.40 -0.70 0 -0.35 1.25 -1.85 2.75 -3.25 1.50 -1.45 2.75 -2.80 2.75 -3 0 -1.10 14.65 -14 22 -19.40 19.30 -14.10 45.30 -24.45 69.45 -27.65 9.35 -1.20 13.55 -1.30 13.55 -0.25 0 0.80 0.25 0.75 -11.80 2.20 -22.15 2.65 -45.85 11.60 -65.25 24.60 -13.30 8.90 -26.15 21 -37 34.80 -16.30 20.65 -27.45 47.50 -31.20 74.90 -1.10 7.95 -1.55 28.20 -0.80 36 0.90 9.55 1.95 15.55 3.85 23.05 2.45 9.50 2.55 8.85 -1.05 9 -1.65 0.05 -8.30 0.35 -14.75 0.65 -12.60 0.60 -13.15 0.60 -25.15 0z"
       id="path56" />
  </g>
  <g
     fill="#0a2f51"
     id="g58"
     style="fill:#176bb8;fill-opacity:1">
    <path
       d="M235.70 479.75 c-0.50 -0.80 -1.20 -4.50 -1.95 -10.35 -2.40 -18.70 -3.30 -23.30 -4.55 -24.25 -0.45 -0.35 -2.10 -0.85 -3.65 -1.15 -7 -1.30 -16.95 -3.80 -24 -6.05 -4.25 -1.35 -8.35 -2.45 -9.10 -2.45 -1.55 0 -3.35 1.95 -11.70 12.45 -10.05 12.65 -11.75 14.55 -12.90 14.55 -1.30 0 -4.30 -1.65 -26.10 -14.60 -20 -11.90 -20.75 -12.40 -20.75 -13.70 0 -0.90 3.75 -10.55 7 -17.95 2.30 -5.30 5.55 -15.25 5.15 -15.95 -0.20 -0.35 -3.75 -3.80 -7.90 -7.65 -4.10 -3.85 -10.45 -10.10 -14.05 -13.85 l-6.55 -6.90 -6.20 2.50 c-3.40 1.40 -10.60 4.45 -15.95 6.80 -11.25 4.90 -10.15 4.95 -13.70 -1.15 -6.35 -11.05 -9 -15.70 -14.15 -25.05 -7.95 -14.35 -9.45 -17.45 -8.80 -18.45 0.25 -0.45 4.20 -3.60 8.75 -7.05 4.50 -3.45 10.55 -8.10 13.35 -10.40 l5.10 -4.15 7.45 1.75 c12.20 2.95 27.60 5.30 41.60 6.35 l8.35 0.60 3.55 5.40 c14.20 21.60 36.40 41.65 57.95 52.45 19.70 9.85 37.70 15.10 58.25 17.05 8.10 0.75 26.80 0.35 35.05 -0.80 12.70 -1.70 23.70 -4.50 34.25 -8.60 29.35 -11.45 53.80 -30.55 72.40 -56.65 22.65 -31.70 32 -70.20 27.15 -111.65 -0.75 -6.60 -0.75 -7.35 -0.05 -7.55 1.85 -0.55 10.95 -1.85 19.25 -2.80 24.45 -2.75 56.65 -2.50 72.75 0.55 1.50 0.25 6.10 1.30 10.20 2.30 7.20 1.75 7.50 1.80 8.90 1 1.95 -1.10 2.40 -0.75 1.90 1.45 -0.85 3.70 -2.55 4.05 -15.60 3 -5.60 -0.45 -11.45 -0.80 -13 -0.80 l-2.85 0 -0.15 25 c-0.15 22.80 -0.20 25.05 -1 25.80 -0.55 0.55 -2.45 1.10 -5.25 1.50 -6.80 0.95 -23.10 3.60 -26 4.20 -1.40 0.30 -2.80 0.85 -3.10 1.20 -0.30 0.35 -1 3.10 -1.60 6.10 -1.65 8.80 -4.25 18.95 -6.65 26.20 l-2.20 6.75 1.05 1.20 c0.60 0.65 2.75 2.45 4.80 4 2.05 1.55 5.50 4.20 7.75 5.95 2.25 1.70 6.15 4.70 8.70 6.60 4.20 3.20 4.85 4.05 4.65 5.85 -0.05 0.55 -7.20 13.75 -14.05 25.90 -1.85 3.30 -4.90 8.80 -6.80 12.15 -4.20 7.55 -5.25 8.80 -7.10 8.45 -0.75 -0.15 -7.70 -2.95 -15.50 -6.30 -7.75 -3.30 -14.40 -6.05 -14.75 -6.05 -0.35 0 -7.15 6.45 -15.10 14.35 l-14.45 14.30 1.40 4.05 c1.65 4.75 7.25 19.10 9.35 23.90 1.65 3.80 1.85 6.40 0.60 7.50 -0.50 0.40 -2.25 1.50 -3.90 2.40 -1.65 0.90 -5.70 3.30 -9 5.25 -11.85 7.10 -26.55 15.65 -29.10 16.95 -3.85 1.95 -4.75 1.75 -7.10 -1.30 -1.15 -1.45 -3.65 -4.80 -5.65 -7.45 -7.65 -10.05 -12.80 -16.05 -14.50 -17 -0.60 -0.30 -2.75 0.20 -7.50 1.75 -6.65 2.25 -17.15 4.95 -25.60 6.60 -2.40 0.50 -4.70 1.15 -5.05 1.50 -0.35 0.35 -0.90 2.40 -1.20 4.55 -1.95 12.70 -2.60 17.45 -3.10 22.35 -0.55 5.65 -1.10 7.75 -2.10 8.40 -0.35 0.20 -12.80 0.40 -27.70 0.40 l-27.15 0 -0.80 -1.25z"
       id="path57"
       style="fill:#176bb8;fill-opacity:1" />
    <path
       d="M65.25 288.65 c-0.80 -0.10 -5.10 -0.50 -9.50 -0.95 -14.45 -1.35 -27.30 -3.80 -38.75 -7.30 -8.95 -2.70 -13 -3.35 -14.75 -2.20 -1.30 0.85 -2.25 0.70 -2.25 -0.35 0 -0.35 0.70 -1.45 1.55 -2.50 1.50 -1.80 1.55 -1.85 5.10 -1.85 4.25 0 10.05 0.90 17.60 2.75 7.40 1.75 18.15 3.55 25.75 4.25 3.45 0.30 7.65 0.70 9.35 0.95 3.85 0.45 4.35 0.20 3.90 -2 -0.60 -2.85 -1.55 -3.85 -4.40 -4.65 -2.25 -0.70 -14.05 -2.65 -25.85 -4.30 -2.60 -0.35 -4.05 -0.85 -4.85 -1.60 l-1.15 -1.05 0 -25.60 c0 -21.65 0.10 -25.70 0.75 -26.55 0.60 -0.90 1.60 -1.20 5.60 -1.65 7.85 -0.95 28.55 -4.65 28.90 -5.20 0.05 -0.05 0.60 -2.55 1.20 -5.60 1.85 -9.10 5.45 -23.05 7.40 -28.90 l1.85 -5.50 -1.95 -1.70 c-1.10 -0.90 -6.85 -5.60 -12.75 -10.35 -5.90 -4.75 -11.15 -9.15 -11.70 -9.70 -0.65 -0.80 -0.85 -1.50 -0.65 -2.60 0.40 -2 4.95 -10.30 16.45 -30.10 8.50 -14.60 9.65 -16.40 10.80 -16.40 0.65 0 6.25 2.25 12.40 5 6.15 2.75 12.90 5.70 15.05 6.55 4.60 1.80 4.95 1.70 8.60 -2.75 2.35 -2.90 10.35 -10.90 20.45 -20.45 2.50 -2.40 4.60 -4.60 4.60 -4.90 0 -0.45 -6.90 -17.50 -11.25 -27.75 -0.95 -2.20 -1.90 -4.70 -2.05 -5.55 -0.35 -1.75 -1.50 -0.95 17.05 -11.90 6.90 -4.10 14.70 -8.70 17.35 -10.30 6.80 -4.10 11.35 -6.45 12.40 -6.45 1.10 0 3.20 2.35 12.40 14.05 3.80 4.85 8.05 10.15 9.45 11.75 l2.55 2.90 8.95 -2.85 c9.40 -3 13.50 -4.10 22.40 -5.90 3.05 -0.60 5.75 -1.30 6.05 -1.55 0.35 -0.25 0.85 -1.40 1.10 -2.55 0.85 -3.30 3.05 -17.90 3.80 -25.25 0.60 -5.70 0.85 -6.85 1.85 -7.90 l1.10 -1.20 26.40 0 c14.50 0 26.75 0.15 27.20 0.30 1.35 0.55 2.10 2.75 2.45 7.20 0.45 5.25 2.70 22.45 3.35 25.50 0.85 3.85 1.30 4.20 6.75 5.20 5.45 1 17.55 4.35 25.60 7.05 2.80 0.95 5.55 1.75 6.05 1.75 0.80 0 4.40 -4.30 14.55 -17.30 1.50 -2 3.80 -4.95 5.15 -6.65 3.20 -4.10 4.35 -4.80 6.45 -4.10 1.70 0.60 13.25 7.30 33.40 19.35 8 4.80 11.80 7.35 11.90 8 0.05 0.50 -1.45 4.90 -3.40 9.70 -1.95 4.80 -4.90 12.30 -6.55 16.70 l-3 7.95 12.20 12.05 c6.70 6.60 12.95 13.10 13.90 14.40 0.95 1.30 2.05 2.50 2.50 2.65 0.90 0.30 8.55 -2.70 22.90 -8.95 4.75 -2.10 8.95 -3.80 9.30 -3.80 1.35 0 5.05 5.80 14.10 22.25 2.75 4.95 5.95 10.50 7.05 12.35 3.05 4.95 6.10 11.20 6.20 12.75 0.15 1.45 0.80 0.85 -11.60 10.75 -4.20 3.40 -9.45 7.55 -11.60 9.30 -2.15 1.70 -3.90 3.45 -3.90 3.85 0 0.40 0.90 3.35 2 6.55 1.10 3.15 1.80 5.65 1.60 5.50 -0.45 -0.25 -7.85 -1.50 -15.35 -2.50 -9 -1.25 -15.90 -1.75 -26.50 -1.95 l-9.95 -0.20 -3.70 -7.20 c-7.50 -14.50 -17.15 -27.60 -29.30 -39.70 -22.75 -22.65 -52.40 -37.80 -84 -42.95 -29.15 -4.75 -57.15 -1.60 -84.35 9.45 -24.30 9.90 -45.55 26.05 -63.20 48 -10.55 13.10 -19.95 30.45 -25.50 46.90 -3.20 9.55 -5.80 21.20 -7.35 32.60 -1 7.75 -0.90 30.80 0.25 39.25 1 7.25 2.70 15.65 4.40 21.20 0.55 1.85 0.95 3.50 0.85 3.55 -0.90 0.90 -42.90 1.70 -49.15 0.90z"
       id="path58"
       style="fill:#176bb8;fill-opacity:1" />
  </g>
</svg>
